name rise30.9205peak61.366fall85.3838.mot
datacolumns 19
datarows 17
range 22.00824700000000 22.03492200000000
endheader
time	ground_force1_vx	ground_force1_vy	ground_force1_vz	ground_force1_px	ground_force1_py	ground_force1_pz	ground_force2_vx	ground_force2_vy	ground_force2_vz	ground_force2_px	ground_force2_py	ground_force2_pz	ground_torque1_x	ground_torque1_y	ground_torque1_z	ground_torque2_x	ground_torque2_y	ground_torque2_z	
22.00824700000000	-8.82772600000000	40.88049700000000	-9.10206500000000	0.35148400000000	0.00000000000000	0.06010000000000	-55.08050500000000	775.49553900000001	-53.14231700000000	0.13282000000000	0.00000000000000	-0.11844100000000	0.00000000000000	-6.57196500000000	0.00000000000000	0.00000000000000	-23.94838100000000	0.00000000000000	
22.00991800000000	-9.65400500000000	47.77793800000000	-10.15046100000000	0.35500100000000	0.00000000000000	0.06143100000000	-55.28850600000000	772.37675100000001	-52.81106600000000	0.13230700000000	0.00000000000000	-0.11844800000000	0.00000000000000	-7.36521900000000	0.00000000000000	0.00000000000000	-23.85849300000000	0.00000000000000	
22.01158300000000	-10.30769000000000	54.73057100000000	-11.07371300000000	0.35830300000000	0.00000000000000	0.06263800000000	-55.50950100000000	769.15832000000000	-52.46574700000000	0.13180000000000	0.00000000000000	-0.11845100000000	0.00000000000000	-8.07646300000000	0.00000000000000	0.00000000000000	-23.77148000000000	0.00000000000000	
22.01325500000000	-10.76546500000000	61.64789400000000	-11.84809200000000	0.36141500000000	0.00000000000000	0.06373900000000	-55.74379900000000	765.84011499999997	-52.10596000000000	0.13129600000000	0.00000000000000	-0.11845200000000	0.00000000000000	-8.68802500000000	0.00000000000000	0.00000000000000	-23.68736400000000	0.00000000000000	
22.01491800000000	-11.01408700000000	68.46299200000000	-12.45869700000000	0.36436100000000	0.00000000000000	0.06474700000000	-55.99163700000000	762.42197099999998	-51.73130300000000	0.13079800000000	0.00000000000000	-0.11844800000000	0.00000000000000	-9.18846600000000	0.00000000000000	0.00000000000000	-23.60615100000000	0.00000000000000	
22.01658200000000	-11.05017900000000	75.13448400000000	-12.89945600000000	0.36715700000000	0.00000000000000	0.06567500000000	-56.25318200000000	758.90368300000000	-51.34137700000000	0.13030400000000	0.00000000000000	-0.11844200000000	0.00000000000000	-9.57266200000000	0.00000000000000	0.00000000000000	-23.52782200000000	0.00000000000000	
22.01824800000000	-10.87925300000000	81.64603300000000	-13.17239800000000	0.36981800000000	0.00000000000000	0.06653200000000	-56.52851900000000	755.28500799999995	-50.93579300000000	0.12981500000000	0.00000000000000	-0.11843100000000	0.00000000000000	-9.84134800000000	0.00000000000000	0.00000000000000	-23.45234300000000	0.00000000000000	
22.01991300000000	-10.51416900000000	88.00387100000000	-13.28639100000000	0.37235700000000	0.00000000000000	0.06732800000000	-56.81766000000000	751.56566199999997	-50.51416700000000	0.12933200000000	0.00000000000000	-0.11841700000000	0.00000000000000	-10.00026900000000	0.00000000000000	0.00000000000000	-23.37965400000000	0.00000000000000	
22.02158800000000	-9.97325500000000	94.23289200000001	-13.25553200000000	0.37478400000000	0.00000000000000	0.06806800000000	-57.12053100000000	747.74531500000001	-50.07612700000000	0.12885300000000	0.00000000000000	-0.11839800000000	0.00000000000000	-10.05904900000000	0.00000000000000	0.00000000000000	-23.30967800000000	0.00000000000000	
22.02324900000000	-9.27830200000000	100.37187299999999	-13.09738800000000	0.37710900000000	0.00000000000000	0.06876000000000	-57.43697400000000	743.82359399999996	-49.62131400000000	0.12837900000000	0.00000000000000	-0.11837500000000	0.00000000000000	-10.02994400000000	0.00000000000000	0.00000000000000	-23.24231400000000	0.00000000000000	
22.02491800000000	-8.45261600000000	106.46838000000000	-12.83125200000000	0.37933800000000	0.00000000000000	0.06940700000000	-57.76674700000000	739.80008099999998	-49.14938500000000	0.12791100000000	0.00000000000000	-0.11834800000000	0.00000000000000	-9.92657900000000	0.00000000000000	0.00000000000000	-23.17744300000000	0.00000000000000	
22.02659300000000	-7.51928500000000	112.57382600000000	-12.47656700000000	0.38147900000000	0.00000000000000	0.07001400000000	-58.10951800000000	735.67431499999998	-48.66001500000000	0.12744800000000	0.00000000000000	-0.11831600000000	0.00000000000000	-9.76279900000000	0.00000000000000	0.00000000000000	-23.11492300000000	0.00000000000000	
22.02824900000000	-6.49975400000000	118.73904600000000	-12.05159500000000	0.38353800000000	0.00000000000000	0.07058600000000	-58.46486700000000	731.44579099999999	-48.15290000000000	0.12699100000000	0.00000000000000	-0.11827900000000	0.00000000000000	-9.55168300000000	0.00000000000000	0.00000000000000	-23.05459000000000	0.00000000000000	
22.02991600000000	-5.41276600000000	125.01064900000000	-11.57241700000000	0.38551800000000	0.00000000000000	0.07112500000000	-58.83228200000000	727.11396100000002	-47.62776000000000	0.12653900000000	0.00000000000000	-0.11823800000000	0.00000000000000	-9.30479100000000	0.00000000000000	0.00000000000000	-22.99626000000000	0.00000000000000	
22.03159800000000	-4.27369500000000	131.42829100000000	-11.05225400000000	0.38742600000000	0.00000000000000	0.07163400000000	-59.21116200000000	722.67823899999996	-47.08434000000000	0.12609300000000	0.00000000000000	-0.11819100000000	0.00000000000000	-9.03164900000000	0.00000000000000	0.00000000000000	-22.93973000000000	0.00000000000000	
22.03325500000000	-3.09424700000000	138.02292000000000	-10.50114200000000	0.38926400000000	0.00000000000000	0.07211500000000	-59.60081200000000	718.13800000000003	-46.52241700000000	0.12565300000000	0.00000000000000	-0.11813900000000	0.00000000000000	-8.73948000000000	0.00000000000000	0.00000000000000	-22.88477500000000	0.00000000000000	
22.03492200000000	-1.88247900000000	144.81593599999999	-9.92588100000000	0.39103500000000	0.00000000000000	0.07257100000000	-60.00044600000000	713.49258599999996	-45.94179400000000	0.12521900000000	0.00000000000000	-0.11808200000000	0.00000000000000	-8.43314900000000	0.00000000000000	0.00000000000000	-22.83115100000000	0.00000000000000	
